# xmcd
#
# Track frame offsets:
# 150
# 16761
# 34235
# 44454
# 59620
# 87174
# 98803
# 108692
# 116775
# 136981
# 150427
# 171133
# 180890
# 195487
# 204895
# 215599
# 228049
#
# Disc length: 3181 seconds
#
#
# Revision: 0
# Processed by: cddbd v1.5.1PL0 Copyright (c) Steve Scherf et al.
# Submitted via: FreeRIP 2.941 
#
DISCID=da0c6b11
DTITLE=Jack Derwin - Jack Cat Blues
DYEAR=2005
DGENRE=Blues
TTITLE0=River of Love
TTITLE1=When You've Had Enough of Me
TTITLE2=Taboulie Blues
TTITLE3=Memphis Jitter Blues
TTITLE4=Room to Move
TTITLE5=The Thrill is Gone
TTITLE6=Who Will Be Next
TTITLE7=Kaz's Cafe
TTITLE8=Don't Send Me Home in Wood
TTITLE9=Blue Mountain Bound
TTITLE10=Lonely Avenue
TTITLE11=Hoochie Coochie Man
TTITLE12=Old Kaputar Road
TTITLE13=Baby Please Don't Go
TTITLE14=Hand It Over
TTITLE15=Reflected Blue
TTITLE16=Moonchild
EXTD=Australian blues - from Sydney
EXTT0=
EXTT1=
EXTT2=
EXTT3=
EXTT4=
EXTT5=
EXTT6=
EXTT7=
EXTT8=
EXTT9=
EXTT10=
EXTT11=
EXTT12=
EXTT13=
EXTT14=
EXTT15=
EXTT16=
PLAYORDER=
